<?xml version="1.0" standalone="no"?><!DOCTYPE svg PUBLIC "-//W3C//DTD SVG 1.1//EN" "http://www.w3.org/Graphics/SVG/1.1/DTD/svg11.dtd"><svg class="icon" width="200px" height="200.00px" viewBox="0 0 1024 1024" version="1.1" xmlns="http://www.w3.org/2000/svg"><path fill="#1296db" d="M512.37388 299.173587c-117.32419 0-212.792424 95.242307-212.792424 212.323575 0 117.242217 95.468234 212.617481 212.792424 212.617481 117.317193 0 212.748438-95.375264 212.748438-212.617481C725.122318 394.415893 629.691072 299.173587 512.37388 299.173587zM651.143159 512.21693c0 75.927531-62.09099 137.704623-138.417393 137.704623S374.294378 588.145461 374.294378 512.21693c0-76.14846 62.105985-138.101495 138.432388-138.101495S651.143159 436.06847 651.143159 512.21693z"  /><path fill="#1296db" d="M1000.240657 430.169371c-13.193748-12.871852-30.847059-22.109875-48.486375-25.389818l-72.615598-15.975852c-4.950405-14.784236-11.375334-30.002331-19.442734-46.191114l39.692209-66.270643c19.794621-30.90704 26.916326-74.883868-1.789423-103.67159l-44.09279-44.256738c-13.193748-13.224738-32.028678-20.513389-53.047904-20.513389-18.55502 0-38.298658 6.11203-52.908949 16.365726l-64.071352 40.644902c-15.292072-7.627542-30.414199-13.938508-45.912204-19.093847l-16.266758-73.949169c-3.277944-17.527352-12.496973-35.113684-25.317841-48.287439C581.168709 8.384298 562.480732 0 543.353896 0l-62.71379 0c-42.684244 0-66.828463 38.842482-74.56597 72.161745l-18.365082 73.007472c-17.536349 6.134023-34.089014 13.114774-49.395082 20.800297l-65.882768-41.711558c-14.822223-10.400648-34.22797-16.357728-53.282829-16.357728-20.785302 0-39.487275 7.288651-52.652032 20.513389l-44.121781 44.256738c-28.661763 28.751734-21.555054 72.73556-1.789423 103.67159l41.936485 69.977449c-7.10671 14.541314-12.922835 28.552798-17.62432 42.483309L72.252715 404.779553c-17.638316 3.279943-35.306622 12.518966-48.50037 25.389818C8.540248 444.990595 0.164947 463.731555 0.164947 482.921371l0 62.577833c0 19.336768 8.419287 36.975084 24.386141 50.993567 12.555954 11.04744 29.453508 19.483721 47.583665 23.764342l74.302055 18.469048c4.693487 13.077785 9.996778 25.772694 16.112807 38.533582l-41.965476 70.051425c-10.018771 15.695942-16.112807 33.57618-17.19146 50.346775-1.320574 21.109197 5.229315 39.549255 18.980883 53.347808l44.136776 44.300723c13.179753 13.194748 31.86673 20.454408 52.637037 20.454408 19.068855 0 38.482598-5.950082 53.296824-16.365726l65.926754-42.064444c16.619644 8.318319 33.399237 15.431027 50.062866 21.227159l18.350086 72.897508c4.055693 18.189138 12.373013 35.135677 23.425451 47.7866 14.000488 15.975852 31.697785 24.427128 51.155514 24.427128l62.3699 0c41.019781 0 71.778868-36.71017 77.939883-72.323693l16.589654-73.890188c14.683268-4.99439 29.468503-11.143409 44.818557-18.696975l64.48222 40.651899c14.595296 10.252696 34.352929 16.350731 52.893954 16.350731 21.005231 0 39.839161-7.25966 53.0629-20.469403l44.077795-44.285728c28.661763-28.743737 21.555054-72.757553 1.789423-103.693583l-39.736194-66.321627c6.754823-13.813548 12.761887-27.964988 17.902231-42.255383l74.273064-18.476046c33.238288-7.737506 72.006795-31.92871 72.006795-74.758908l0-62.577833C1023.835053 463.74655 1015.444757 444.990595 1000.240657 430.169371zM819.088036 575.987379l-10.473625 32.532516c-4.877428 14.990169-11.067433 29.545479-18.907907 44.491662l-15.613968 30.877049 61.541167 102.899839 0.146953 0.249919c3.637828 5.752146 5.156338 10.988459 5.706161 14.041475l-39.934131 39.711202c-0.351887 0.051983-0.747759 0.073976-1.092648 0.073976-2.985038 0-7.238667-1.198614-9.966788-2.773106l-1.166624-1.176621-1.804418-0.911706-70.00444-44.749579-30.150284-19.226804-32.057669 16.490686c-14.815226 7.781492-31.023002 14.578302-46.857899 19.652667l-34.22797 10.996456-25.639737 116.440475-0.461851 2.317253c-0.755756 4.354597-4.28262 8.826156-6.262982 10.451632l-56.135909 0c-1.796421-2.493197-4.620511-7.494585-6.394939-14.92419l-19.692654-80.083192-8.698197-33.510201-33.121326-10.944473-0.190938-0.043986c-17.257439-5.391263-34.360927-12.481977-50.744647-21.050216l-31.932709-16.931544-30.642125 19.263792-71.610922 45.742259-0.769752 0.374879-1.716447 1.103644-0.718768 0.499839c-1.921381 1.441535-6.416932 2.994035-10.296682 2.994035-0.197936 0-0.476846-0.021993-0.740761-0.058981l-39.839161-39.961122c0.542825-3.001033 2.097324-8.370303 5.963078-14.592297l45.662285-76.185448 17.858245-29.428516-15.525997-30.693109c-7.01174-14.019482-12.643925-27.795043-16.751602-40.931809l-11.001455-33.054348-33.341255-8.672205-82.061554-20.499394-0.27891-0.073976c-6.754823-1.515512-11.448311-4.059692-13.898521-5.737151l0-56.046938c1.679459-1.919381 6.124026-5.259305 10.429639-6.039054l0.850726-0.161948 81.709668-18.226126 35.137676-7.774495 10.949471-34.282952c4.723478-14.61529 10.693554-29.236578 18.255117-44.6826l15.525997-30.745092-17.829254-29.295559-45.941195-76.796251-0.234924-0.374879c-3.637828-5.627187-5.112352-10.878494-5.625187-13.952504l39.259348-39.365314c0.564818-0.036988 1.151629-0.036988 1.422542-0.036988 3.468882 0 7.370625 0.948694 9.893812 2.368237l1.877395 1.919381 2.552178 0.830732 70.422305 44.822555 30.561151 19.667662 32.350575-16.916548 0.190938-0.109965c15.525997-8.458274 32.416553-15.512001 50.201822-20.940252l33.502203-11.062435 8.170367-33.724132 20.440413-80.862941 0.058981-0.257917c1.466527-6.39194 4.136667-11.32735 5.999067-14.02648l55.842004 0c2.112319 1.816415 5.478235 6.486909 6.197003 10.473625l0.138955 0.852725 0.014995 0.55882 18.533027 82.128533 7.744504 35.238644 33.85409 10.959468 0.212931 0.073976c15.240089 4.648502 30.75209 11.054438 47.429715 19.594685l31.984692 16.975529 30.547156-19.697652 69.461615-44.263735 2.097324-1.036666 1.121639-1.198614c2.537182-1.368559 6.644859-2.353242 9.908807-2.353242 0.270913 0 0.872719 0 1.437537 0.021993l39.53126 39.321328c-0.476846 3.030024-1.965367 8.53225-5.955081 14.762243l-43.564961 72.360681-17.785268 29.715424 15.45302 31.045995 0.160948 0.27991c7.964433 15.01916 14.49233 30.509168 19.912583 47.286761l10.949471 34.716812 35.123681 7.774495 80.272131 17.924224 2.317253 0.470848c4.231636 0.757756 8.691199 4.192649 10.421641 6.193004l0 55.88499c-2.530185 1.735441-7.495584 4.420575-14.866209 6.193004l-81.496736 20.160503L819.088036 575.987379z"  /></svg>